<svg width="100" height="93" viewBox="0 0 100 93" fill="none" xmlns="http://www.w3.org/2000/svg">
<path d="M70.016 60.9678L71.5798 66.7391C72.4579 69.9799 74.9592 72.5118 78.1611 73.4009L83.8626 74.9839L78.1611 76.5669C74.9595 77.4557 72.4582 79.9876 71.5798 83.2287L70.016 89L68.4522 83.2287C67.5741 79.9879 65.0728 77.456 61.8709 76.5669L56.1694 74.9839L61.8709 73.4009C65.0725 72.5121 67.5738 69.9802 68.4522 66.7391L70.016 60.9678ZM26.9008 38.6326C25.2634 44.6752 20.5997 49.3963 14.6302 51.0535L4 54.005L14.6302 56.9565C20.5997 58.614 25.2637 63.3348 26.9008 69.3774L29.8167 80.1377L32.7325 69.3774C34.37 63.3348 39.0336 58.6137 45.0031 56.9565L55.6333 54.005L45.0031 51.0535C39.0336 49.396 34.3697 44.6752 32.7325 38.6326L29.8167 27.8723L26.9008 38.6326ZM76.705 21.4518C75.6456 25.3616 72.6277 28.4165 68.7652 29.4888L61.8868 31.3985L68.7652 33.3082C72.6277 34.3806 75.6456 37.4354 76.705 41.3452L78.5916 48.3077L80.4782 41.3452C81.5376 37.4354 84.5554 34.3806 88.418 33.3082L95.2963 31.3985L88.418 29.4888C84.5554 28.4165 81.5376 25.3616 80.4782 21.4518L78.5916 14.4893L76.705 21.4518ZM46.9797 7.94663C46.3791 10.163 44.6685 11.8945 42.479 12.5024L38.5801 13.5849L42.479 14.6675C44.6685 15.2754 46.3791 17.0069 46.9797 19.2232L48.0491 23.1699L49.1186 19.2232C49.7191 17.0069 51.4297 15.2754 53.6192 14.6675L57.5181 13.5849L53.6192 12.5024C51.4297 11.8945 49.7191 10.163 49.1186 7.94663L48.0494 4L46.9797 7.94663Z" stroke="white" stroke-width="2"/>
</svg>
