<svg width="75" height="85" viewBox="0 0 75 85" fill="none" xmlns="http://www.w3.org/2000/svg">
<path d="M43.5036 70.3736C43.4601 70.4354 43.4257 70.5018 43.3959 70.566C41.6065 73.8606 38.5158 76.862 34.8501 79.0362C31.2668 81.1601 27.1589 82.4729 23.2021 82.4729C17.786 82.4729 12.5211 80.2208 8.65589 76.6031C4.94206 73.1298 2.52724 68.3987 2.52724 63.2139V43.9274V21.6898C2.52724 20.487 2.89604 19.4148 3.55824 18.6747C4.14479 18.0149 4.99475 17.6093 6.03949 17.6093C7.0865 17.6093 7.9342 18.0149 8.52309 18.6747C9.18521 19.4147 9.55409 20.487 9.55409 21.6898V44.7774C9.55409 45.4738 10.1199 46.0397 10.8165 46.0397C11.5153 46.0397 12.0811 45.4738 12.0811 44.7774V21.6898V10.8254C12.0811 9.66838 12.4958 8.62364 13.1969 7.88134C13.8614 7.18026 14.7938 6.74494 15.8775 6.74494C16.9635 6.74494 17.896 7.178 18.5604 7.88134C19.2592 8.61903 19.6738 9.66386 19.6738 10.8254V43.0773C19.6738 43.7761 20.2398 44.342 20.9362 44.342C21.635 44.342 22.201 43.776 22.201 43.0773V10.8254V6.60519C22.201 5.48714 22.6614 4.46527 23.3991 3.72758L23.4564 3.66566C24.1896 2.96006 25.1862 2.527 26.2813 2.527C27.4017 2.527 28.4213 2.98527 29.1613 3.72523C29.9013 4.46526 30.3595 5.48487 30.3595 6.60519V12.4521C30.3595 12.546 30.371 12.6377 30.3893 12.727C30.3709 12.9355 30.3595 13.1439 30.3595 13.3571V41.0978C30.3595 41.7943 30.9255 42.3602 31.6241 42.3602C32.3207 42.3602 32.8865 41.7943 32.8865 41.0978V13.3572C32.8865 12.2391 33.3471 11.2172 34.0871 10.4772C34.8271 9.73716 35.8468 9.27662 36.9671 9.27662C38.0874 9.27662 39.107 9.73708 39.847 10.4772H39.8516C40.5893 11.2127 41.0453 12.2322 41.0453 13.3572V52.5533C41.0453 53.2499 41.6112 53.8157 42.31 53.8157C42.3466 53.8157 42.3832 53.8135 42.4177 53.8111L42.4383 53.8088C42.8048 53.7768 43.1532 53.5866 43.373 53.259L49.9646 43.4759C50.7069 42.3717 51.8341 41.6752 53.0484 41.4369C54.2672 41.2009 55.5754 41.4232 56.6774 42.1655C57.7771 42.9079 58.4759 44.0351 58.7119 45.2493C58.9502 46.4681 58.728 47.7787 57.9857 48.8784L43.5036 70.3736ZM45.6068 71.7688L60.0774 50.2897C61.2069 48.6126 61.5483 46.624 61.1886 44.7751C60.8266 42.9215 59.7636 41.2033 58.0887 40.0737C56.4093 38.9442 54.4206 38.6005 52.574 38.9603C50.7204 39.3223 49.0044 40.3853 47.8726 42.0647L43.5722 48.4477V13.3572C43.5722 11.5426 42.8276 9.89299 41.6293 8.69242L41.6317 8.69016C40.4357 7.49419 38.7838 6.75189 36.9669 6.75189C35.4295 6.75189 34.0114 7.2834 32.8865 8.17005V6.60527C32.8865 4.78848 32.1442 3.1365 30.9459 1.94053C29.75 0.742298 28.098 0 26.2812 0C24.5055 0 22.8857 0.712473 21.6944 1.86722L21.6143 1.94053C20.6497 2.90283 19.9807 4.1629 19.7562 5.56513C18.7045 4.7197 17.3734 4.21794 15.8774 4.21794C14.0651 4.21794 12.4979 4.95571 11.3731 6.14473C10.2298 7.35226 9.55394 9.01322 9.55394 10.8255V16.221C8.59858 15.5017 7.41174 15.0824 6.03941 15.0824C4.2295 15.0824 2.74022 15.8132 1.68173 16.9977C0.602554 18.2051 3.8147e-06 19.873 3.8147e-06 21.6899V43.9274V63.2139C3.8147e-06 69.1295 2.73326 74.5068 6.93973 78.4383C11.2585 82.4798 17.1444 85 23.202 85C27.6216 85 32.1809 83.5498 36.133 81.206C40.1699 78.814 43.5929 75.4689 45.6068 71.7688Z" fill="white"/>
<path d="M50.5464 22.2664L50.5465 22.263C50.5554 21.6032 51.1027 21.0817 51.7639 21.0817C52.4313 21.0817 52.9814 21.6129 52.9814 22.279V26.6872C52.9814 27.4162 53.5864 28.0161 54.3438 28.0161H58.8586C59.526 28.0161 60.0761 28.5472 60.0761 29.2134C60.0761 29.8796 59.526 30.4107 58.8586 30.4107H54.3438C52.2516 30.4107 50.5464 28.7486 50.5464 26.6872L50.5464 22.2664ZM54.3438 6.73462H58.8586C59.5257 6.73462 60.0761 7.2648 60.0761 7.93058C60.0761 8.59636 59.5257 9.12655 58.8586 9.12655H54.3438C53.586 9.12655 52.9814 9.72575 52.9814 10.4532V14.8676C52.9814 15.5334 52.431 16.0636 51.7639 16.0636C51.0968 16.0636 50.5464 15.5334 50.5464 14.8676V10.4532C50.5464 8.3942 52.2519 6.73462 54.3438 6.73462ZM66.4371 28.0188H70.9519C71.7097 28.0188 72.3143 27.4196 72.3143 26.6922V22.2777C72.3143 21.8477 72.549 21.4531 72.9252 21.2408C73.3008 21.0287 73.7628 21.0287 74.1384 21.2408C74.5146 21.4531 74.7493 21.8477 74.7493 22.2777V26.6922C74.7493 28.7511 73.0438 30.4107 70.9519 30.4107H66.4371C65.77 30.4107 65.2196 29.8805 65.2196 29.2148C65.2196 28.549 65.77 28.0188 66.4371 28.0188ZM66.4371 6.73462H70.9519C73.0438 6.73462 74.7493 8.3942 74.7493 10.4532V14.8676C74.7493 15.5334 74.1989 16.0636 73.5318 16.0636C72.8647 16.0636 72.3143 15.5334 72.3143 14.8676V10.4532C72.3143 9.72575 71.7097 9.12655 70.9519 9.12655H66.4371C65.77 9.12655 65.2196 8.59636 65.2196 7.93058C65.2196 7.2648 65.77 6.73462 66.4371 6.73462Z" fill="white" stroke="white" stroke-width="0.5"/>
</svg>
