<svg width="71" height="72" viewBox="0 0 71 72" fill="none" xmlns="http://www.w3.org/2000/svg">
<g clip-path="url(#clip0_476_270)">
<path fill-rule="evenodd" clip-rule="evenodd" d="M0 0.0771484H71V71.0771H0V0.0771484ZM16.0153 28.7819L21.5871 36.0541L27.1796 28.7819H27.9361V42.915H27.1319V30.1456L21.8729 36.9578H21.322L16.0423 30.1445V42.915H15.2382V28.7819H16.0153ZM31.8499 35.7023H38.9424V34.9382H31.8499V29.5471H40.396V28.7819H31.0446V42.915H40.7347V42.1509H31.8499V35.7023ZM46.6356 32.4975L46.7579 28.7818V28.7807H54.9706V42.9139H54.1665V29.546H47.5567L47.4408 32.7832C47.3759 34.3028 47.3175 35.4338 47.2211 36.3755C47.1151 37.4059 46.9711 38.315 46.7806 39.156C46.1691 41.7439 45.064 42.8327 42.9676 42.9139L42.8701 42.9182V42.1043L42.9697 42.1108C44.3064 42.193 45.2946 41.2958 45.9039 39.445C46.0684 38.9709 46.1897 38.3616 46.2979 37.4708C46.4094 36.5584 46.4808 35.8116 46.5165 35.186L46.6356 32.4975Z" fill="white"/>
<path d="M21.5873 36.0539L16.0154 28.7817H15.2383V42.9149H16.0425V30.1444L21.3221 36.9577H21.873L27.132 30.1455V42.9149H27.9362V28.7817H27.1797L21.5873 36.0539Z" fill="#4C6EE5"/>
<path d="M31.8497 35.7022H38.9422V34.9381H31.8497V29.5469H40.3958V28.7817H31.0444V42.9149H40.7346V42.1507H31.8497V35.7022Z" fill="#4C6EE5"/>
<path d="M46.7579 28.7818L46.6356 32.4975L46.5165 35.186C46.4808 35.8116 46.4093 36.5584 46.2979 37.4708C46.1896 38.3616 46.0684 38.9709 45.9039 39.445C45.2945 41.2958 44.3064 42.193 42.9697 42.1108L42.8701 42.1043V42.9182L42.9675 42.9139C45.064 42.8327 46.1691 41.7439 46.7806 39.156C46.9711 38.315 47.115 37.4059 47.2211 36.3755C47.3174 35.4339 47.3759 34.3028 47.4408 32.7832L47.5566 29.546H54.1664V42.9139H54.9706V28.7808H46.7579V28.7818Z" fill="#4C6EE5"/>
</g>
<defs>
<clipPath id="clip0_476_270">
<rect width="71" height="71" fill="white" transform="translate(0 0.0771484)"/>
</clipPath>
</defs>
</svg>
