<svg width="71" height="72" viewBox="0 0 71 72" fill="none" xmlns="http://www.w3.org/2000/svg">
<g clip-path="url(#clip0_476_260)">
<path d="M71 0.0771484H0V71.0771H71V0.0771484Z" fill="#FF0032"/>
<path d="M21.6026 5.53857L16.3837 16.3731L11.1666 5.53857H5.46655V21.9224H9.46107V10.1973L14.5633 20.1019H18.2041L23.3081 10.1973V21.9224H27.3026V5.53857H21.6026Z" fill="white"/>
<path d="M47.3022 5.53857V8.80061H54.4367L54.4206 21.9188H58.4151L58.433 8.80061H65.5693V5.53857H47.3022Z" fill="white"/>
<path d="M61.564 60.1528C61.4635 60.8063 61.2014 61.3431 60.7813 61.7471C60.3845 62.1294 59.8459 62.4005 59.1799 62.5531C58.521 62.7057 57.5569 62.7919 56.5354 62.7919C55.5139 62.7919 54.539 62.6555 53.7491 62.3844C52.9825 62.1223 52.3757 61.6645 51.9449 61.0236C51.5122 60.379 51.2932 59.4491 51.2932 58.257V56.582C51.2932 55.3899 51.5122 54.46 51.9449 53.8155C52.3739 53.1763 52.9807 52.7186 53.7473 52.4546C54.5373 52.1854 55.4744 52.0471 56.5336 52.0471C57.5928 52.0471 58.5192 52.1351 59.1781 52.2859C59.8423 52.4385 60.3827 52.7114 60.7795 53.092C61.1996 53.4977 61.4617 54.0345 61.5622 54.688H65.5585C65.449 53.3361 64.9876 52.1836 64.1887 51.2626C63.458 50.4206 62.4473 49.8048 61.187 49.4296C59.9626 49.0651 58.354 48.873 56.5336 48.873C54.6198 48.873 52.9574 49.1477 51.5948 49.6917C50.2106 50.2429 49.137 51.162 48.401 52.4241C47.6954 53.6341 47.3256 55.2499 47.3022 57.2283V57.4114L47.5159 57.4186L47.3022 57.4258V57.6071C47.3274 59.5873 47.6972 61.2013 48.401 62.4113C49.137 63.6734 50.2106 64.5926 51.5948 65.1437C52.9574 65.6859 54.6198 65.9624 56.5336 65.9624C58.4474 65.9624 59.9626 65.7703 61.187 65.4058C62.4473 65.0306 63.458 64.4148 64.1887 63.5729C64.9876 62.6519 65.449 61.4993 65.5585 60.1475H61.5604L61.564 60.1528Z" fill="white"/>
</g>
<defs>
<clipPath id="clip0_476_260">
<rect width="71" height="71" fill="white" transform="translate(0 0.0771484)"/>
</clipPath>
</defs>
</svg>
